<?xml version="1.0" encoding="utf-8"?>
<!-- Generator: Adobe Illustrator 18.1.1, SVG Export Plug-In . SVG Version: 6.00 Build 0)  -->
<!DOCTYPE svg PUBLIC "-//W3C//DTD SVG 1.1//EN" "http://www.w3.org/Graphics/SVG/1.1/DTD/svg11.dtd">
<svg version="1.1" id="lightningIcon" xmlns="http://www.w3.org/2000/svg" xmlns:xlink="http://www.w3.org/1999/xlink" x="0px"
	 y="0px" width="70px" height="70px" viewBox="0 0 70 70" enable-background="new 0 0 70 70" xml:space="preserve">
<path id="lightning" fill="#FF9B00" d="M40,39.7l-6.4,8.5L33,47h5.3h1.5l-0.9,1.2l-6,7.4c-0.1,0.2-0.3,0.2-0.5,0.1
	c-0.1-0.1-0.2-0.3-0.1-0.5l5.4-7.9l0.6,1.2H33h-1.5l0.9-1.2l6.4-8.5c0.2-0.3,0.7-0.4,1-0.1C40.2,38.9,40.3,39.4,40,39.7z"/>
<g id="cloud2">
	<circle fill="#939598" cx="14.5" cy="28.5" r="6.7"/>
	<circle fill="#A7A9AC" cx="28.2" cy="26.8" r="5.3"/>
	<path fill="#939598" d="M35.7,32.1c0,1.7-1.4,3.1-3.1,3.1H13.9c-1.7,0-3.1-1.4-3.1-3.1l0,0c0-1.7,13.4-6.7,15.1-6.7
		c0,0,0.5,4.9,4.1,0.8C31.3,24.7,35.7,30.4,35.7,32.1L35.7,32.1z"/>
	<circle fill="#939598" cx="33.4" cy="30" r="5.1"/>
	<path fill="#A7A9AC" d="M38.5,29.6c-0.2-2.5-2.2-4.5-4.7-4.7c-2.1,0.2-3.8,2-3.8,4.2c0,2.4,1.9,4.3,4.3,4.3
		C36.5,33.4,38.3,31.7,38.5,29.6z"/>
	<path fill="#A7A9AC" d="M13.8,21.9c-3.1,0.3-5.6,2.8-5.9,5.9c0.3,2.7,2.6,4.7,5.3,4.7c2.9,0,5.3-2.4,5.3-5.3
		C18.5,24.5,16.4,22.2,13.8,21.9z"/>
	<circle fill="#939598" cx="21.3" cy="22.5" r="7.1"/>
	<path fill="#A7A9AC" d="M27.5,20.7c0-0.8-0.1-1.5-0.4-2.2c-1.3-1.8-3.4-3.1-5.8-3.1c-3.9,0-7.1,3.2-7.1,7.1c0,0.7,0.1,1.3,0.3,1.9
		c1.2,2,3.4,3.3,6,3.3C24.4,27.7,27.5,24.6,27.5,20.7z"/>
</g>
<g id="cloud1">
	<circle fill="#939598" cx="56.9" cy="26.9" r="6.7"/>
	<circle fill="#A7A9AC" cx="43.1" cy="25.1" r="5.3"/>
	<path fill="#939598" d="M35.7,30.4c0,1.7,1.4,3.1,3.1,3.1h18.6c1.7,0,3.1-1.4,3.1-3.1l0,0c0-1.7-13.4-6.7-15.1-6.7
		c0,0-0.5,4.9-4.1,0.8C40.1,23,35.7,28.7,35.7,30.4L35.7,30.4z"/>
	<circle fill="#939598" cx="38" cy="28.4" r="5.1"/>
	<path fill="#A7A9AC" d="M32.9,27.9c0.2-2.5,2.2-4.5,4.7-4.7c2.1,0.2,3.8,2,3.8,4.2c0,2.4-1.9,4.3-4.3,4.3
		C34.9,31.8,33.1,30.1,32.9,27.9z"/>
	<path fill="#A7A9AC" d="M57.6,20.3c3.1,0.3,5.6,2.8,5.9,5.9c-0.3,2.7-2.6,4.7-5.3,4.7c-2.9,0-5.3-2.4-5.3-5.3
		C52.9,22.8,54.9,20.6,57.6,20.3z"/>
	<circle fill="#939598" cx="50" cy="20.9" r="7.1"/>
	<path fill="#A7A9AC" d="M43.9,19c0-0.8,0.1-1.5,0.4-2.2c1.3-1.8,3.4-3.1,5.8-3.1c3.9,0,7.1,3.2,7.1,7.1c0,0.7-0.1,1.3-0.3,1.9
		c-1.2,2-3.4,3.3-6,3.3C47,26.1,43.9,22.9,43.9,19z"/>
</g>
<g id="cloud0">
	<path fill="#6D6E71" d="M63.7,36.7c0,2.6-2.9,4.6-6.5,4.6h-39c-3.6,0-6.5-2.1-6.5-4.6l0,0c0-2.6,2.9-4.6,6.5-4.6h39
		C60.8,32,63.7,34.1,63.7,36.7L63.7,36.7z"/>
	<circle fill="#BCBEC0" cx="35.6" cy="25.7" r="8.5"/>
	<circle fill="#6D6E71" cx="45" cy="31.1" r="7.8"/>
	<path fill="#BCBEC0" d="M45,23.3c-1.8,0-3.5,0.6-4.9,1.7c-0.9,1.3-1.4,2.8-1.4,4.5c0,4.4,3.5,7.9,7.9,7.9c1.7,0,3.2-0.5,4.5-1.4
		c1.1-1.3,1.7-3,1.7-4.9C52.8,26.8,49.3,23.3,45,23.3z"/>
	<circle fill="#6D6E71" cx="58.7" cy="36.2" r="5.1"/>
	<circle fill="#6D6E71" cx="17.3" cy="34.8" r="6.5"/>
	<path fill="#BCBEC0" d="M22.1,33.5c0-1.8-0.8-3.4-2-4.5c-0.9-0.4-1.8-0.7-2.8-0.7c-3.6,0-6.5,2.9-6.5,6.5c0,1,0.2,2,0.7,2.8
		c1.1,1.2,2.7,2,4.5,2C19.4,39.7,22.1,36.9,22.1,33.5z"/>
	<circle fill="#6D6E71" cx="25" cy="32" r="7.6"/>
	<path fill="#BCBEC0" d="M25,24.4c-4.2,0-7.6,3.4-7.6,7.6c0,1.5,0.4,2.9,1.2,4c1.3,1.2,3.1,1.9,5,1.9c4.1,0,7.5-3.3,7.5-7.5
		c0-1.9-0.7-3.7-1.9-5C27.8,24.8,26.4,24.4,25,24.4z"/>
	<circle fill="#6D6E71" cx="54.2" cy="31.1" r="5.4"/>
	<path fill="#BCBEC0" d="M54.3,35.4c2.8,0,5-2.1,5.3-4.8c-0.3-2.7-2.6-4.9-5.4-4.9c-2.5,0-4.6,1.7-5.2,3.9c0,0.1,0,0.3,0,0.4
		C49,33,51.4,35.4,54.3,35.4z"/>
	<path fill="#BCBEC0" d="M58.7,31.1c-2.6,0-4.7,1.9-5,4.4c0.2,2.6,2.4,4.7,5,4.7c2.6,0,4.8-2,5-4.6C63.5,33.1,61.3,31.1,58.7,31.1z"
		/>
</g>
</svg>
