<?xml version="1.0" encoding="utf-8"?>
<!-- Generator: Adobe Illustrator 18.1.1, SVG Export Plug-In . SVG Version: 6.00 Build 0)  -->
<!DOCTYPE svg PUBLIC "-//W3C//DTD SVG 1.1//EN" "http://www.w3.org/Graphics/SVG/1.1/DTD/svg11.dtd">
<svg version="1.1" id="mostlyCloudyIcon" xmlns="http://www.w3.org/2000/svg" xmlns:xlink="http://www.w3.org/1999/xlink" x="0px"
	 y="0px" width="70px" height="70px" viewBox="0 0 70 70" enable-background="new 0 0 70 70" xml:space="preserve">
<g id="sunIcon">
	<g id="outerRepeat">
		<circle id="outer" fill="#FFE499" cx="27.7" cy="33.8" r="17.4"/>
	</g>
	<g id="middleRepeat">
		<circle id="middle" fill="#FFD766" cx="27.7" cy="33.8" r="13.4"/>
	</g>
	<circle id="inner" fill="#FFBC00" cx="27.7" cy="33.8" r="10.1"/>
</g>
<g id="cloudRight">
	<path fill="#D1D3D4" d="M68.5,33.1c0,2.1-2.4,3.8-5.3,3.8H31.4c-2.9,0-5.3-1.7-5.3-3.8l0,0c0-2.1,2.4-3.8,5.3-3.8h31.8
		C66.2,29.3,68.5,31,68.5,33.1L68.5,33.1z"/>
	<circle fill="#FFFFFF" cx="45.6" cy="24.1" r="6.9"/>
	<circle fill="#D1D3D4" cx="53.2" cy="28.6" r="6.4"/>
	<path fill="#FFFFFF" d="M53.2,22.2c-1.5,0-2.9,0.5-4,1.4c-0.7,1-1.1,2.3-1.1,3.6c0,3.6,2.9,6.4,6.4,6.4c1.4,0,2.6-0.4,3.6-1.1
		c0.9-1.1,1.4-2.5,1.4-4C59.6,25.1,56.7,22.2,53.2,22.2z"/>
	<circle fill="#D1D3D4" cx="64.4" cy="32.8" r="4.1"/>
	<circle fill="#D1D3D4" cx="30.6" cy="31.6" r="5.3"/>
	<path fill="#FFFFFF" d="M34.5,30.6c0-1.4-0.6-2.7-1.6-3.7c-0.7-0.3-1.5-0.5-2.3-0.5c-2.9,0-5.3,2.4-5.3,5.3c0,0.8,0.2,1.6,0.5,2.3
		c0.9,1,2.2,1.6,3.7,1.6C32.3,35.6,34.5,33.3,34.5,30.6z"/>
	<circle fill="#D1D3D4" cx="36.9" cy="29.3" r="6.2"/>
	<path fill="#FFFFFF" d="M36.9,23.1c-3.4,0-6.2,2.8-6.2,6.2c0,1.2,0.3,2.3,0.9,3.3c1.1,1,2.5,1.6,4.1,1.6c3.4,0,6.1-2.7,6.1-6.1
		c0-1.6-0.6-3-1.6-4.1C39.2,23.4,38.1,23.1,36.9,23.1z"/>
	<circle fill="#D1D3D4" cx="60.8" cy="28.6" r="4.4"/>
	<path fill="#FFFFFF" d="M60.9,32.1c2.3,0,4.1-1.7,4.3-3.9c-0.2-2.2-2.1-4-4.4-4c-2,0-3.7,1.4-4.3,3.2c0,0.1,0,0.2,0,0.3
		C56.5,30.1,58.5,32.1,60.9,32.1z"/>
	<path fill="#FFFFFF" d="M64.4,28.6c-2.1,0-3.9,1.6-4.1,3.6c0.2,2.1,1.9,3.8,4.1,3.8c2.1,0,3.9-1.6,4.1-3.7
		C68.3,30.2,66.5,28.6,64.4,28.6z"/>
</g>
<g id="cloudLeft">
	<circle fill="#D1D3D4" cx="9.1" cy="45.9" r="7.6"/>
	<circle fill="#FFFFFF" cx="24.9" cy="43.9" r="6.1"/>
	<path fill="#D1D3D4" d="M33.4,50c0,2-1.6,3.6-3.6,3.6H8.4c-2,0-3.6-1.6-3.6-3.6l0,0c0-2,15.4-7.7,17.4-7.7c0,0,0.6,5.7,4.6,0.9
		C28.3,41.5,33.4,48,33.4,50L33.4,50z"/>
	<circle fill="#D1D3D4" cx="30.8" cy="47.7" r="5.9"/>
	<path fill="#FFFFFF" d="M36.6,47.1c-0.2-2.8-2.5-5.1-5.4-5.4c-2.5,0.3-4.4,2.3-4.4,4.9c0,2.7,2.2,4.9,4.9,4.9
		C34.3,51.5,36.4,49.6,36.6,47.1z"/>
	<path fill="#FFFFFF" d="M8.3,38.3c-3.6,0.4-6.4,3.2-6.8,6.8c0.3,3,2.9,5.4,6.1,5.4c3.4,0,6.1-2.7,6.1-6.1
		C13.7,41.3,11.3,38.7,8.3,38.3z"/>
	<circle fill="#D1D3D4" cx="16.9" cy="39" r="8.1"/>
	<path fill="#FFFFFF" d="M24,36.9c0-0.9-0.1-1.7-0.4-2.5c-1.5-2.1-3.9-3.5-6.7-3.5c-4.5,0-8.1,3.6-8.1,8.1c0,0.7,0.1,1.5,0.3,2.2
		c1.4,2.3,3.9,3.8,6.8,3.8C20.4,45,24,41.4,24,36.9z"/>
</g>

</svg>
