<?xml version="1.0" encoding="utf-8"?>
<!-- Generator: Adobe Illustrator 18.1.1, SVG Export Plug-In . SVG Version: 6.00 Build 0)  -->
<!DOCTYPE svg PUBLIC "-//W3C//DTD SVG 1.1//EN" "http://www.w3.org/Graphics/SVG/1.1/DTD/svg11.dtd">
<svg version="1.1" id="partlyCloudyNightIcon" xmlns="http://www.w3.org/2000/svg" xmlns:xlink="http://www.w3.org/1999/xlink"
	 x="0px" y="0px" width="70px" height="70px" viewBox="0 0 70 70" enable-background="new 0 0 70 70" xml:space="preserve">
<g id="moon">
	<circle fill="#F1E5A1" cx="23.3" cy="35.1" r="17.5"/>
	<path fill="#F5EEBC" d="M5.8,35.1c0,5.7,2.7,10.8,6.9,14c1.3,0.3,2.6,0.5,4,0.5c9.7,0,17.5-7.9,17.5-17.5c0-5.7-2.7-10.8-6.9-14
		c-1.3-0.3-2.6-0.5-4-0.5C13.7,17.5,5.8,25.4,5.8,35.1z"/>
	<circle fill="#DBD093" cx="17.9" cy="26.6" r="2.4"/>
	<circle fill="#DBD093" cx="12.4" cy="35.1" r="3.4"/>
	<circle fill="#DBD093" cx="21" cy="35.1" r="1.7"/>
</g>
<g id="cloud">
	<path fill="#D1D3D4" d="M65.3,47.8c0,2.6-3,4.8-6.7,4.8H18.4c-3.7,0-6.7-2.1-6.7-4.8l0,0c0-2.6,3-4.8,6.7-4.8h40.2
		C62.3,43,65.3,45.2,65.3,47.8L65.3,47.8z"/>
	<circle fill="#FFFFFF" cx="36.3" cy="36.5" r="8.8"/>
	<circle fill="#D1D3D4" cx="45.9" cy="42.1" r="8"/>
	<path fill="#FFFFFF" d="M45.9,34.1c-1.9,0-3.6,0.7-5,1.8c-0.9,1.3-1.4,2.9-1.4,4.6c0,4.5,3.6,8.1,8.1,8.1c1.7,0,3.3-0.5,4.6-1.4
		c1.1-1.4,1.8-3.1,1.8-5C54,37.7,50.4,34.1,45.9,34.1z"/>
	<circle fill="#D1D3D4" cx="60.1" cy="47.4" r="5.2"/>
	<circle fill="#D1D3D4" cx="17.4" cy="46" r="6.7"/>
	<path fill="#FFFFFF" d="M22.4,44.6c0-1.8-0.8-3.5-2-4.6c-0.9-0.4-1.9-0.7-2.9-0.7c-3.7,0-6.7,3-6.7,6.7c0,1.1,0.3,2.1,0.7,2.9
		c1.2,1.2,2.8,2,4.6,2C19.5,50.9,22.4,48.1,22.4,44.6z"/>
	<circle fill="#D1D3D4" cx="25.3" cy="43" r="7.9"/>
	<path fill="#FFFFFF" d="M25.3,35.2c-4.4,0-7.9,3.5-7.9,7.9c0,1.5,0.4,2.9,1.2,4.1c1.4,1.2,3.2,2,5.2,2c4.2,0,7.7-3.4,7.7-7.7
		c0-2-0.8-3.8-2-5.2C28.2,35.6,26.8,35.2,25.3,35.2z"/>
	<circle fill="#D1D3D4" cx="55.5" cy="42.1" r="5.6"/>
	<path fill="#FFFFFF" d="M55.6,46.5c2.8,0,5.2-2.2,5.5-4.9c-0.3-2.8-2.7-5-5.6-5c-2.6,0-4.7,1.7-5.4,4.1c0,0.1,0,0.3,0,0.4
		C50.1,44.1,52.6,46.5,55.6,46.5z"/>
	<path fill="#FFFFFF" d="M60.1,42.1c-2.7,0-4.9,2-5.2,4.6c0.2,2.7,2.5,4.8,5.2,4.8c2.7,0,4.9-2.1,5.2-4.7
		C65,44.2,62.8,42.1,60.1,42.1z"/>
</g>

</svg>
