<?xml version="1.0" encoding="utf-8"?>
<!-- Generator: Adobe Illustrator 18.1.1, SVG Export Plug-In . SVG Version: 6.00 Build 0)  -->
<!DOCTYPE svg PUBLIC "-//W3C//DTD SVG 1.1//EN" "http://www.w3.org/Graphics/SVG/1.1/DTD/svg11.dtd">
<svg version="1.1" id="showersIcon" xmlns="http://www.w3.org/2000/svg" xmlns:xlink="http://www.w3.org/1999/xlink" x="0px"
	 y="0px" width="70px" height="70px" viewBox="0 0 70 70" enable-background="new 0 0 70 70" xml:space="preserve">
<g id="rain">
	<path fill="#33B5D9" d="M33.9,40.1c-0.1,0.5-0.4,3.1-0.9,3.9c-0.1,0.2-0.3,0.4-0.4,0.5c-0.4,0.2-0.8,0.3-1.1,0.1
		c-0.6-0.3-0.6-1.3-0.1-2.2C31.8,41.8,33.2,40.6,33.9,40.1z"/>
	<path fill="#33B5D9" d="M31.1,41.9c0,0.3-0.2,1.9-0.5,2.4c-0.1,0.1-0.2,0.2-0.2,0.3c-0.2,0.1-0.5,0.2-0.7,0
		c-0.4-0.2-0.4-0.8-0.1-1.3C29.9,43,30.7,42.3,31.1,41.9z"/>
	<path fill="#33B5D9" d="M41.1,40.1c-0.1,0.5-0.4,3.1-0.9,3.9c-0.1,0.2-0.3,0.4-0.4,0.5c-0.4,0.2-0.8,0.3-1.1,0.1
		c-0.6-0.3-0.6-1.3-0.1-2.2C39,41.8,40.4,40.7,41.1,40.1z"/>
	<path fill="#33B5D9" d="M26.1,40.1c-0.1,0.5-0.4,3.1-0.9,3.9c-0.1,0.2-0.3,0.4-0.4,0.5c-0.4,0.2-0.8,0.3-1.1,0.1
		c-0.6-0.3-0.6-1.3-0.1-2.2C24,41.8,25.4,40.7,26.1,40.1z"/>
</g>
<g id="cloud2">
	<path fill="#A7A9AC" d="M67.8,27.9c0,1.9-2.1,3.4-4.8,3.4H34.5c-2.6,0-4.8-1.5-4.8-3.4l0,0c0-1.9,2.1-3.4,4.8-3.4H63
		C65.7,24.5,67.8,26.1,67.8,27.9L67.8,27.9z"/>
	<circle fill="#E6E7E8" cx="47.2" cy="19.9" r="6.2"/>
	<circle fill="#A7A9AC" cx="54.1" cy="23.9" r="5.7"/>
	<path fill="#E6E7E8" d="M54.1,18.2c-1.3,0-2.6,0.5-3.6,1.3c-0.6,0.9-1,2.1-1,3.3c0,3.2,2.6,5.8,5.8,5.8c1.2,0,2.3-0.4,3.3-1
		c0.8-1,1.3-2.2,1.3-3.6C59.8,20.7,57.2,18.2,54.1,18.2z"/>
	<circle fill="#A7A9AC" cx="64.1" cy="27.6" r="3.7"/>
	<circle fill="#A7A9AC" cx="33.8" cy="26.6" r="4.7"/>
	<path fill="#E6E7E8" d="M37.3,25.7c0-1.3-0.6-2.5-1.4-3.3c-0.6-0.3-1.3-0.5-2.1-0.5c-2.6,0-4.7,2.1-4.7,4.7c0,0.7,0.2,1.5,0.5,2.1
		c0.8,0.9,2,1.4,3.3,1.4C35.3,30.1,37.3,28.1,37.3,25.7z"/>
	<circle fill="#A7A9AC" cx="39.4" cy="24.5" r="5.6"/>
	<path fill="#E6E7E8" d="M39.4,18.9c-3.1,0-5.6,2.5-5.6,5.6c0,1.1,0.3,2.1,0.8,2.9c1,0.9,2.3,1.4,3.7,1.4c3,0,5.5-2.4,5.5-5.5
		c0-1.4-0.5-2.7-1.4-3.7C41.5,19.2,40.5,18.9,39.4,18.9z"/>
	<circle fill="#A7A9AC" cx="60.9" cy="23.9" r="4"/>
	<path fill="#E6E7E8" d="M60.9,27c2,0,3.7-1.5,3.9-3.5c-0.2-2-1.9-3.6-3.9-3.6c-1.8,0-3.3,1.2-3.8,2.9c0,0.1,0,0.2,0,0.3
		C57,25.3,58.8,27,60.9,27z"/>
	<path fill="#E6E7E8" d="M64.1,23.9c-1.9,0-3.5,1.4-3.7,3.3c0.1,1.9,1.7,3.4,3.7,3.4c1.9,0,3.5-1.5,3.7-3.3
		C67.6,25.4,66,23.9,64.1,23.9z"/>
</g>
<g id="cloud1">
	<path fill="#A7A9AC" d="M42.7,33.6c0,1.9-2.1,3.4-4.8,3.4H9.4c-2.6,0-4.8-1.5-4.8-3.4l0,0c0-1.9,2.1-3.4,4.8-3.4H38
		C40.6,30.2,42.7,31.7,42.7,33.6L42.7,33.6z"/>
	<circle fill="#E6E7E8" cx="22.1" cy="25.5" r="6.2"/>
	<circle fill="#A7A9AC" cx="29" cy="29.6" r="5.7"/>
	<path fill="#E6E7E8" d="M29,23.8c-1.3,0-2.6,0.5-3.6,1.3c-0.6,0.9-1,2.1-1,3.3c0,3.2,2.6,5.8,5.8,5.8c1.2,0,2.3-0.4,3.3-1
		c0.8-1,1.3-2.2,1.3-3.6C34.7,26.4,32.1,23.8,29,23.8z"/>
	<circle fill="#A7A9AC" cx="39" cy="33.3" r="3.7"/>
	<circle fill="#A7A9AC" cx="8.7" cy="32.3" r="4.7"/>
	<path fill="#E6E7E8" d="M12.2,31.3c0-1.3-0.6-2.5-1.4-3.3c-0.6-0.3-1.3-0.5-2.1-0.5c-2.6,0-4.7,2.1-4.7,4.7c0,0.7,0.2,1.5,0.5,2.1
		c0.8,0.9,2,1.4,3.3,1.4C10.2,35.8,12.2,33.8,12.2,31.3z"/>
	<circle fill="#A7A9AC" cx="14.3" cy="30.2" r="5.6"/>
	<path fill="#E6E7E8" d="M14.3,24.6c-3.1,0-5.6,2.5-5.6,5.6c0,1.1,0.3,2.1,0.8,2.9c1,0.9,2.3,1.4,3.7,1.4c3,0,5.5-2.4,5.5-5.5
		c0-1.4-0.5-2.7-1.4-3.7C16.4,24.9,15.4,24.6,14.3,24.6z"/>
	<circle fill="#A7A9AC" cx="35.8" cy="29.6" r="4"/>
	<path fill="#E6E7E8" d="M35.9,32.7c2,0,3.7-1.5,3.9-3.5c-0.2-2-1.9-3.6-3.9-3.6c-1.8,0-3.3,1.2-3.8,2.9c0,0.1,0,0.2,0,0.3
		C32,30.9,33.7,32.7,35.9,32.7z"/>
	<path fill="#E6E7E8" d="M39,29.6c-1.9,0-3.5,1.4-3.7,3.3c0.1,1.9,1.7,3.4,3.7,3.4c1.9,0,3.5-1.5,3.7-3.3C42.5,31,41,29.6,39,29.6z"
		/>
</g>
<g id="cloud0">
	<circle fill="#D1D3D4" cx="22.1" cy="35.2" r="9.8"/>
	<circle fill="#F1F2F2" cx="42.4" cy="32.6" r="7.8"/>
	<path fill="#D1D3D4" d="M53.3,40.4c0,2.5-2,4.6-4.6,4.6H21.3c-2.5,0-4.6-2-4.6-4.6l0,0c0-2.5,19.8-9.9,22.3-9.9c0,0,0.8,7.3,6,1.2
		C46.9,29.5,53.3,37.9,53.3,40.4L53.3,40.4z"/>
	<circle fill="#D1D3D4" cx="50" cy="37.4" r="7.6"/>
	<path fill="#F1F2F2" d="M57.5,36.8c-0.3-3.7-3.2-6.6-6.9-6.9c-3.2,0.3-5.6,3-5.6,6.2c0,3.5,2.8,6.3,6.3,6.3
		C54.5,42.4,57.2,39.9,57.5,36.8z"/>
	<path fill="#F1F2F2" d="M21.1,25.4c-4.6,0.5-8.2,4.1-8.7,8.7c0.5,3.9,3.8,6.9,7.8,6.9c4.3,0,7.9-3.5,7.9-7.9
		C28,29.2,25,25.9,21.1,25.4z"/>
	<circle fill="#D1D3D4" cx="32.2" cy="26.3" r="10.4"/>
	<path fill="#F1F2F2" d="M41.3,23.6c0-1.1-0.2-2.2-0.5-3.2c-1.9-2.7-5-4.5-8.6-4.5c-5.8,0-10.4,4.7-10.4,10.4c0,1,0.1,1.9,0.4,2.8
		c1.8,2.9,5,4.9,8.7,4.9C36.7,34,41.3,29.3,41.3,23.6z"/>
</g>
</svg>
