<?xml version="1.0" encoding="utf-8"?>
<!-- Generator: Adobe Illustrator 18.1.1, SVG Export Plug-In . SVG Version: 6.00 Build 0)  -->
<!DOCTYPE svg PUBLIC "-//W3C//DTD SVG 1.1//EN" "http://www.w3.org/Graphics/SVG/1.1/DTD/svg11.dtd">
<svg version="1.1" id="snowShowersIcon" xmlns="http://www.w3.org/2000/svg" xmlns:xlink="http://www.w3.org/1999/xlink" x="0px"
	 y="0px" width="70px" height="70px" viewBox="0 0 70 70" enable-background="new 0 0 70 70" xml:space="preserve">
<g id="rain">
	<path fill="#FFFFFF" d="M25.4,36.5l0.2-0.2L25.2,36l0.4-0.2l-0.1-0.2l-0.4,0.2l0-0.5l-0.3,0l0,0.6L24.6,36l0-0.7l-0.3,0l0,0.8
		l-0.8,0.4l0.1-0.5l-0.5,0l0.3-0.4l0.8-0.1v-0.3l-0.6,0l0.2-0.3L23.4,35l-0.2,0.3l-0.2-0.6l-0.3,0.1l0.2,0.8L22.7,36l-0.1-0.5
		l-0.4,0.3l0-0.9l0.7-0.4l-0.1-0.3l-0.6,0.3v-0.3l0.5-0.3l-0.1-0.3L22.3,34l0-0.5H22l0,0.5l-0.4-0.3L21.4,34l0.5,0.3v0.3l-0.5-0.4
		l-0.1,0.3l0.7,0.4l0,0.9l-0.4-0.3l-0.2,0.4l-0.2-0.4l0.4-0.8l-0.3-0.2l-0.3,0.6l-0.2-0.3L20.5,35l0.1,0.3L20,35.2v0.3l0.8,0.2
		L21,36l-0.5-0.2l0,0.5l-0.7-0.5l0-0.8L19.6,35l0,0.7l-0.2-0.1l0-0.6L19,34.8l0,0.5l-0.4-0.3l-0.2,0.3l0.4,0.3l-0.4,0.2l0.2,0.3
		l0.5-0.3l0.2,0.1l-0.6,0.3l0.2,0.2l0.7-0.4l0.8,0.5l-0.5,0.1l0.3,0.4l-0.4,0l-0.5-0.7l-0.3,0.1l0.4,0.5l-0.4,0v0.3h0.4l-0.4,0.4
		l0.3,0.2l0.6-0.6l0.4,0l-0.4,0.4l0.5,0.2l-0.8,0.4l-0.7-0.4l-0.2,0.2l0.6,0.4l-0.2,0.1l-0.5-0.4l-0.2,0.2l0.4,0.3l-0.4,0.2l0.1,0.3
		l0.4-0.2l0,0.5l0.3,0l0-0.6l0.2-0.1l0,0.7l0.3,0l0-0.8l0.8-0.4l-0.1,0.5l0.5,0l-0.3,0.4l-0.8,0.1v0.3l0.6,0l-0.2,0.3l0.3,0.2
		l0.2-0.3l0.2,0.6l0.3-0.1l-0.2-0.8l0.3-0.4l0.1,0.5l0.4-0.3l0,0.9l-0.8,0.3l0.1,0.3l0.6-0.3v0.3L21.1,41l0.1,0.3l0.4-0.2l0,0.5h0.3
		l0-0.5l0.4,0.3l0.1-0.3l-0.6-0.4v-0.3l0.6,0.4l0.1-0.3l-0.7-0.4l0-0.9l0.4,0.4l0.2-0.5l0.2,0.4l-0.3,0.8l0.3,0.2l0.3-0.6l0.2,0.3
		l0.3-0.1l-0.1-0.3l0.6,0.1l0-0.3L23,39.4L22.8,39l0.3,0l0,0l0.3,0l0-0.5l0.8,0.5L24,39.9l0.3,0.1l0-0.7l0.2,0.1l0,0.6l0.3,0.1
		l0-0.5l0.4,0.3l0.2-0.3L25,39.4l0.4-0.2l-0.2-0.2l-0.5,0.3l-0.2-0.1l0.6-0.3L25,38.5l-0.7,0.4l-0.8-0.5l0.5-0.1l-0.3-0.4l0.4,0
		l0.5,0.7l0.3-0.1l-0.4-0.5l0.4,0v-0.3h-0.4l0.4-0.4l-0.3-0.2L24,37.5l-0.4,0l0.4-0.4l-0.5-0.2l0.8-0.4l0.7,0.4l0.2-0.2l-0.5-0.4
		l0.2-0.1L25.4,36.5z M22.8,36.4l0.4,0l-0.1,0.4l-0.7,0.4L22.8,36.4z M22.6,38.6l-0.3-0.7l0.7,0.4l0,0.4L22.6,38.6L22.6,38.6z
		 M22.1,36.1l0.3-0.2l0.1,0.4l-0.4,0.7L22.1,36.1z M21.6,35.9l0.3,0.2l0,0.8l-0.4-0.7L21.6,35.9z M21.2,36.3l0.4,0.7L21,36.8
		L21,36.7l-0.1-0.1l0-0.4L21.2,36.3z M20.7,36.8l0.7,0.4l0,0l-0.8,0l-0.2-0.3L20.7,36.8z M20.3,37.8l0.3-0.3l0.8,0l-0.7,0.4
		L20.3,37.8z M21.1,38.5h-0.4l0.1-0.4l0.7-0.4L21.1,38.5z M21.7,38.8L21.4,39l-0.1-0.4l0.4-0.7L21.7,38.8z M22.2,39.1l-0.3-0.2
		l0-0.8l0.4,0.7L22.2,39.1z M23.1,38.1l-0.7-0.4l0.8,0l0.2,0.3L23.1,38.1z M23.2,37.4l-0.8,0l0.7-0.4l0.3,0.1L23.2,37.4z"/>
	<path fill="#FFFFFF" d="M50.8,36.1l0.2-0.2l-0.4-0.3l0.5-0.2L51,35.1l-0.5,0.2l0-0.5l-0.3,0l0,0.6l-0.2,0.1l0-0.7l-0.3,0l0,0.9
		l-0.9,0.4l0.1-0.5l-0.6,0l0.3-0.4l0.9-0.1V35l-0.7,0l0.2-0.3l-0.2-0.2l-0.2,0.3l-0.2-0.6L48,34.4l0.2,0.9L48,35.6l-0.1-0.5
		l-0.4,0.3l0-1l0.8-0.4l-0.1-0.3l-0.7,0.3v-0.3l0.6-0.3l-0.1-0.3l-0.5,0.2l0-0.5h-0.3l0,0.5l-0.4-0.3l-0.1,0.3l0.5,0.3v0.3l-0.6-0.5
		l-0.1,0.3l0.7,0.5l0,1L46.7,35l-0.2,0.5l-0.2-0.4l0.4-0.8l-0.3-0.2L46,34.7l-0.2-0.3l-0.2,0.2l0.1,0.3l-0.7-0.1v0.3l0.9,0.2
		l0.2,0.4l-0.5-0.2l0,0.5l-0.8-0.5l0-0.9l-0.3-0.1l0,0.7l-0.2-0.1l0-0.6L44,34.4l0,0.5l-0.5-0.3l-0.2,0.3l0.4,0.3l-0.5,0.2l0.2,0.3
		l0.6-0.3l0.2,0.1l-0.7,0.3l0.2,0.2l0.8-0.4l0.9,0.6l-0.5,0.1l0.3,0.5l-0.5,0l-0.5-0.7l-0.3,0.1l0.4,0.5l-0.4,0v0.3h0.4l-0.5,0.5
		l0.3,0.2l0.6-0.6l0.5,0l-0.4,0.4l0.5,0.2l-0.9,0.4l-0.7-0.5l-0.2,0.2l0.6,0.4l-0.2,0.1l-0.5-0.4l-0.2,0.2l0.4,0.3L43.1,39l0.1,0.3
		l0.5-0.2l0,0.5l0.3,0l0-0.6l0.2-0.1l0,0.7l0.3,0l0-0.9l0.9-0.4l-0.1,0.6l0.6,0L45.7,39l-0.9,0.1v0.3l0.7,0l-0.2,0.3l0.3,0.2
		l0.2-0.3l0.2,0.7l0.3-0.1L46,39.3l0.3-0.4l0.1,0.6l0.5-0.3l0,1L46,40.4l0.1,0.3l0.7-0.3v0.3L46.2,41l0.1,0.3l0.5-0.2l0,0.5H47
		l0-0.5l0.4,0.3l0.1-0.3L47,40.7v-0.3l0.6,0.4l0.1-0.3L47,40.1l0-1l0.4,0.4l0.2-0.5l0.2,0.4l-0.3,0.8l0.3,0.2l0.3-0.6l0.2,0.3
		l0.3-0.1l-0.1-0.3l0.6,0.1l0-0.3l-0.9-0.2L48,38.8l0.3,0l0,0l0.3,0.1l0-0.6l0.9,0.6l-0.1,0.9l0.3,0.1l0-0.7l0.2,0.1l0,0.6l0.3,0.1
		l0-0.5l0.5,0.3l0.2-0.3l-0.5-0.3l0.5-0.2l-0.2-0.2L50.1,39l-0.2-0.1l0.7-0.3l-0.2-0.2l-0.8,0.4l-0.9-0.6l0.5-0.1l-0.3-0.5l0.5,0
		l0.5,0.7l0.3-0.1l-0.4-0.6l0.4,0v-0.3h-0.4l0.5-0.5L50,36.6l-0.6,0.6l-0.5,0l0.4-0.4l-0.5-0.2l0.9-0.4l0.7,0.5l0.2-0.2L50,36
		l0.2-0.1L50.8,36.1z M48,36.1l0.4,0l-0.1,0.4l-0.8,0.4L48,36.1z M47.8,38.4l-0.3-0.7l0.7,0.5l0,0.4L47.8,38.4L47.8,38.4z
		 M47.3,35.8l0.3-0.2l0.1,0.4l-0.4,0.7L47.3,35.8z M46.7,35.5l0.3,0.2l0,0.9l-0.4-0.8L46.7,35.5z M46.3,36l0.4,0.8l-0.5-0.3
		l-0.1-0.1L46,36.3l0-0.4L46.3,36z M45.8,36.5l0.7,0.5l0,0l-0.8,0l-0.2-0.3L45.8,36.5z M45.4,37.5l0.3-0.3l0.9,0l-0.8,0.4L45.4,37.5
		z M46.2,38.3h-0.4l0.1-0.4l0.8-0.4L46.2,38.3z M46.8,38.6l-0.3,0.2l-0.1-0.4l0.5-0.7L46.8,38.6z M47.4,38.9l-0.3-0.2l0-0.9l0.4,0.8
		L47.4,38.9z M48.4,37.8l-0.7-0.5l0.9,0l0.2,0.3L48.4,37.8z M48.5,37.1l-0.9,0l0.8-0.4l0.3,0.1L48.5,37.1z"/>
	<path fill="#FFFFFF" d="M35.2,37.2l0.2-0.2L35,36.8l0.4-0.2l-0.1-0.2l-0.4,0.2l0-0.4l-0.3,0l0,0.5l-0.2,0.1l0-0.6l-0.3,0l0,0.7
		l-0.7,0.3l0.1-0.4l-0.5,0l0.2-0.3l0.7-0.1v-0.3l-0.5,0l0.2-0.3l-0.2-0.2l-0.2,0.3l-0.2-0.5L33,35.8l0.2,0.7l-0.2,0.3l-0.1-0.4
		l-0.3,0.3l0-0.8l0.6-0.3L33,35.3l-0.5,0.3v-0.2l0.5-0.2l-0.1-0.2L32.5,35l0-0.4h-0.3l0,0.4l-0.3-0.2L31.8,35l0.4,0.3v0.2l-0.5-0.4
		l-0.1,0.2l0.6,0.4l0,0.8l-0.3-0.3l-0.2,0.4l-0.2-0.3l0.3-0.6l-0.2-0.2L31.4,36l-0.2-0.3L31,35.9l0.1,0.3l-0.5-0.1v0.3l0.7,0.2
		l0.2,0.3L31,36.7l0,0.4l-0.6-0.4l0-0.7l-0.2-0.1l0,0.6L30,36.4l0-0.5l-0.3-0.1l0,0.4L29.3,36l-0.2,0.2l0.3,0.2l-0.4,0.2l0.2,0.2
		l0.5-0.2l0.2,0.1L29.4,37l0.2,0.2l0.6-0.3l0.7,0.5l-0.4,0.1l0.3,0.4l-0.4,0l-0.4-0.6l-0.2,0.1l0.3,0.4l-0.3,0V38H30l-0.4,0.4
		l0.2,0.2l0.5-0.5l0.4,0l-0.3,0.3l0.4,0.2L30.1,39l-0.6-0.4l-0.2,0.2l0.5,0.3l-0.2,0.1l-0.4-0.3L29,39.1l0.3,0.2L29,39.5l0.1,0.2
		l0.4-0.2l0,0.4l0.3,0l0-0.5l0.2-0.1l0,0.6l0.3,0l0-0.7l0.7-0.3l-0.1,0.5l0.5,0l-0.2,0.3l-0.7,0.1v0.3l0.5,0l-0.2,0.3l0.2,0.2
		l0.2-0.3l0.2,0.5l0.2-0.1l-0.2-0.7l0.2-0.3l0.1,0.5l0.4-0.3l0,0.8l-0.7,0.2l0.1,0.3l0.5-0.3v0.2l-0.5,0.2l0.1,0.3l0.4-0.2l0,0.4
		h0.3l0-0.4l0.3,0.2l0.1-0.2l-0.5-0.3v-0.2l0.5,0.3l0.1-0.2l-0.6-0.4l0-0.8l0.3,0.3l0.2-0.4l0.2,0.3l-0.3,0.6l0.2,0.2l0.2-0.5
		l0.2,0.3l0.2-0.1L33.3,40l0.5,0.1l0-0.3l-0.7-0.2L33,39.3l0.2,0l0,0l0.3,0l0-0.5l0.7,0.5L34,40.1l0.2,0.1l0-0.6l0.2,0.1l0,0.5
		l0.3,0.1l0-0.4l0.4,0.2l0.2-0.2l-0.4-0.2l0.4-0.2l-0.2-0.2l-0.5,0.2l-0.2-0.1l0.5-0.3L34.8,39l-0.6,0.3l-0.7-0.5l0.4-0.1l-0.3-0.4
		l0.4,0l0.4,0.6l0.2-0.1l-0.3-0.5l0.3,0v-0.3h-0.3l0.4-0.4l-0.2-0.2L34,38.1l-0.4,0l0.3-0.3l-0.4-0.2l0.7-0.3l0.6,0.4l0.2-0.2
		l-0.5-0.3l0.2-0.1L35.2,37.2z M33,37.2l0.3,0l-0.1,0.3l-0.6,0.3L33,37.2z M32.8,39l-0.2-0.6l0.6,0.4l0,0.3L32.8,39L32.8,39z
		 M32.4,36.9l0.2-0.2l0.1,0.3l-0.3,0.6L32.4,36.9z M31.9,36.7l0.2,0.2l0,0.7L31.8,37L31.9,36.7z M31.6,37.1l0.3,0.6l-0.4-0.2
		l-0.1-0.1l-0.1-0.1l0-0.3L31.6,37.1z M31.2,37.5l0.6,0.4l0,0l-0.7,0l-0.2-0.3L31.2,37.5z M30.8,38.3l0.2-0.2l0.7,0l-0.6,0.3
		L30.8,38.3z M31.5,39h-0.3l0.1-0.3l0.6-0.3L31.5,39z M32,39.2l-0.2,0.2l-0.1-0.3l0.4-0.6L32,39.2z M32.5,39.4l-0.2-0.2l0-0.7
		l0.3,0.6L32.5,39.4z M33.2,38.6l-0.6-0.4l0.7,0l0.2,0.2L33.2,38.6z M33.3,38l-0.7,0l0.6-0.3l0.3,0.1L33.3,38z"/>
	<path fill="#FFFFFF" d="M41.3,38.9l0.1-0.1l-0.2-0.1l0.2-0.1l0-0.1l-0.2,0.1l0-0.3l-0.2,0l0,0.3l-0.1,0.1l0-0.4l-0.2,0l0,0.4
		L40.3,39l0.1-0.3l-0.3,0l0.1-0.2l0.4,0v-0.2l-0.3,0l0.1-0.2l-0.1-0.1l-0.1,0.2L40.1,38L40,38l0.1,0.4l-0.1,0.2l-0.1-0.3l-0.2,0.2
		l0-0.5l0.4-0.2l0-0.2l-0.3,0.2v-0.1l0.3-0.1l0-0.1l-0.2,0.1l0-0.3h-0.2l0,0.3l-0.2-0.1l-0.1,0.1l0.3,0.2v0.1l-0.3-0.2l-0.1,0.1
		l0.4,0.2l0,0.5l-0.2-0.2l-0.1,0.2l-0.1-0.2l0.2-0.4l-0.1-0.1L39,38.2L38.9,38l-0.1,0.1l0.1,0.2l-0.3-0.1v0.2l0.4,0.1l0.1,0.2
		l-0.3-0.1l0,0.3l-0.4-0.3l0-0.4l-0.1,0l0,0.4l-0.1-0.1l0-0.3L38,38l0,0.3l-0.2-0.1l-0.1,0.1l0.2,0.1l-0.2,0.1l0.1,0.1l0.3-0.1
		l0.1,0.1l-0.3,0.2l0.1,0.1l0.4-0.2l0.4,0.3l-0.3,0.1l0.2,0.2l-0.2,0l-0.3-0.4L37.9,39l0.2,0.3l-0.2,0v0.2h0.2l-0.2,0.2l0.1,0.1
		l0.3-0.3l0.2,0l-0.2,0.2l0.3,0.1L38.2,40l-0.4-0.2l-0.1,0.1l0.3,0.2l-0.1,0.1l-0.3-0.2L37.6,40l0.2,0.1l-0.2,0.1l0.1,0.1l0.2-0.1
		l0,0.3l0.2,0l0-0.3l0.1-0.1l0,0.4l0.2,0l0-0.4l0.4-0.2l-0.1,0.3l0.3,0l-0.1,0.2l-0.4,0v0.2l0.3,0l-0.1,0.2l0.1,0.1l0.1-0.2l0.1,0.3
		l0.1-0.1L39,40.4l0.1-0.2l0.1,0.3l0.2-0.2l0,0.5L39,41l0,0.2l0.3-0.2v0.1l-0.3,0.1l0,0.2l0.2-0.1l0,0.3h0.2l0-0.3l0.2,0.1l0.1-0.1
		l-0.3-0.2V41l0.3,0.2l0.1-0.1l-0.4-0.2l0-0.5l0.2,0.2l0.1-0.3l0.1,0.2l-0.2,0.4l0.1,0.1l0.1-0.3l0.1,0.2l0.1-0.1l-0.1-0.2l0.3,0.1
		l0-0.2l-0.4-0.1L40,40.2l0.1,0l0,0l0.2,0l0-0.3l0.4,0.3l-0.1,0.4l0.1,0l0-0.4l0.1,0.1l0,0.3l0.2,0l0-0.3l0.2,0.1l0.1-0.1l-0.2-0.1
		l0.2-0.1l-0.1-0.1L41,40.3l-0.1-0.1l0.3-0.2L41.1,40l-0.4,0.2l-0.4-0.3l0.3-0.1l-0.2-0.2l0.2,0l0.3,0.4l0.1-0.1l-0.2-0.3l0.2,0
		v-0.2h-0.2l0.2-0.2l-0.1-0.1l-0.3,0.3l-0.2,0l0.2-0.2l-0.3-0.1l0.4-0.2l0.4,0.2l0.1-0.1L41,38.8l0.1-0.1L41.3,38.9z M40,38.9l0.2,0
		l0,0.2l-0.4,0.2L40,38.9z M39.9,40l-0.2-0.4l0.4,0.2l0,0.2L39.9,40L39.9,40z M39.6,38.7l0.1-0.1l0,0.2l-0.2,0.4L39.6,38.7z
		 M39.3,38.6l0.1,0.1l0,0.4l-0.2-0.4L39.3,38.6z M39.1,38.8l0.2,0.4L39,39l0,0L39,39l0-0.2L39.1,38.8z M38.9,39.1l0.3,0.2l0,0
		l-0.4,0l-0.1-0.2L38.9,39.1z M38.7,39.6l0.1-0.1l0.4,0l-0.4,0.2L38.7,39.6z M39.1,40h-0.2l0-0.2l0.4-0.2L39.1,40z M39.4,40.1
		l-0.1,0.1l0-0.2l0.2-0.4L39.4,40.1z M39.7,40.3l-0.1-0.1l0-0.4l0.2,0.4L39.7,40.3z M40.1,39.7l-0.4-0.2l0.4,0l0.1,0.1L40.1,39.7z
		 M40.2,39.4l-0.4,0l0.4-0.2l0.2,0.1L40.2,39.4z"/>
	<path fill="#FFFFFF" d="M55.8,38.9l0.1-0.1l-0.2-0.1l0.2-0.1l0-0.1l-0.2,0.1l0-0.3l-0.2,0l0,0.3l-0.1,0.1l0-0.4l-0.2,0l0,0.4
		L54.8,39l0.1-0.3l-0.3,0l0.1-0.2l0.4,0v-0.2l-0.3,0l0.1-0.2l-0.1-0.1l-0.1,0.2L54.6,38L54.5,38l0.1,0.4l-0.1,0.2l-0.1-0.3l-0.2,0.2
		l0-0.5l0.4-0.2l0-0.2l-0.3,0.2v-0.1l0.3-0.1l0-0.1l-0.2,0.1l0-0.3H54l0,0.3l-0.2-0.1l-0.1,0.1l0.3,0.2v0.1l-0.3-0.2l-0.1,0.1L54,38
		l0,0.5l-0.2-0.2l-0.1,0.2l-0.1-0.2l0.2-0.4l-0.1-0.1l-0.1,0.3L53.4,38l-0.1,0.1l0.1,0.2L53,38.2v0.2l0.4,0.1l0.1,0.2l-0.3-0.1
		l0,0.3l-0.4-0.3l0-0.4l-0.1,0l0,0.4l-0.1-0.1l0-0.3l-0.2,0l0,0.3l-0.2-0.1l-0.1,0.1l0.2,0.1l-0.2,0.1l0.1,0.1l0.3-0.1l0.1,0.1
		l-0.3,0.2l0.1,0.1l0.4-0.2l0.4,0.3l-0.3,0.1l0.2,0.2l-0.2,0l-0.3-0.4L52.4,39l0.2,0.3l-0.2,0v0.2h0.2l-0.2,0.2l0.1,0.1l0.3-0.3
		l0.2,0l-0.2,0.2l0.3,0.1L52.7,40l-0.4-0.2l-0.1,0.1l0.3,0.2l-0.1,0.1l-0.3-0.2L52.1,40l0.2,0.1L52,40.3l0.1,0.1l0.2-0.1l0,0.3
		l0.2,0l0-0.3l0.1-0.1l0,0.4l0.2,0l0-0.4l0.4-0.2l-0.1,0.3l0.3,0l-0.1,0.2l-0.4,0v0.2l0.3,0l-0.1,0.2l0.1,0.1l0.1-0.2l0.1,0.3
		l0.1-0.1l-0.1-0.4l0.1-0.2l0.1,0.3l0.2-0.2l0,0.5L53.5,41l0,0.2l0.3-0.2v0.1l-0.3,0.1l0,0.2l0.2-0.1l0,0.3H54l0-0.3l0.2,0.1
		l0.1-0.1L54,41.1V41l0.3,0.2l0.1-0.1L54,40.8l0-0.5l0.2,0.2l0.1-0.3l0.1,0.2l-0.2,0.4l0.1,0.1l0.1-0.3l0.1,0.2l0.1-0.1l-0.1-0.2
		l0.3,0.1l0-0.2l-0.4-0.1l-0.1-0.2l0.1,0l0,0l0.2,0l0-0.3l0.4,0.3l-0.1,0.4l0.1,0l0-0.4l0.1,0.1l0,0.3l0.2,0l0-0.3l0.2,0.1l0.1-0.1
		l-0.2-0.1l0.2-0.1l-0.1-0.1l-0.3,0.1l-0.1-0.1l0.3-0.2L55.6,40l-0.4,0.2l-0.4-0.3l0.3-0.1l-0.2-0.2l0.2,0l0.3,0.4l0.1-0.1l-0.2-0.3
		l0.2,0v-0.2h-0.2l0.2-0.2l-0.1-0.1l-0.3,0.3l-0.2,0l0.2-0.2l-0.3-0.1l0.4-0.2l0.4,0.2l0.1-0.1l-0.3-0.2l0.1-0.1L55.8,38.9z
		 M54.5,38.9l0.2,0l0,0.2l-0.4,0.2L54.5,38.9z M54.4,40l-0.2-0.4l0.4,0.2l0,0.2L54.4,40L54.4,40z M54.1,38.7l0.1-0.1l0,0.2l-0.2,0.4
		L54.1,38.7z M53.8,38.6l0.1,0.1l0,0.4l-0.2-0.4L53.8,38.6z M53.6,38.8l0.2,0.4L53.5,39l0,0l-0.1,0l0-0.2L53.6,38.8z M53.4,39.1
		l0.3,0.2l0,0l-0.4,0l-0.1-0.2L53.4,39.1z M53.2,39.6l0.1-0.1l0.4,0l-0.4,0.2L53.2,39.6z M53.6,40h-0.2l0-0.2l0.4-0.2L53.6,40z
		 M53.9,40.1l-0.1,0.1l0-0.2l0.2-0.4L53.9,40.1z M54.2,40.3L54,40.1l0-0.4l0.2,0.4L54.2,40.3z M54.6,39.7l-0.4-0.2l0.4,0l0.1,0.1
		L54.6,39.7z M54.7,39.4l-0.4,0l0.4-0.2l0.2,0.1L54.7,39.4z"/>
</g>
<g id="lightSnow">
	<g id="snow">
	</g>
	<g id="cloud">
		<path fill="#D1D3D4" d="M64.1,37c0,2.7-3.1,5-7,5H15.5c-3.8,0-7-2.2-7-5l0,0c0-2.7,3.1-5,7-5h41.7C61,32,64.1,34.2,64.1,37
			L64.1,37z"/>
		<circle fill="#FFFFFF" cx="34" cy="25.2" r="9.1"/>
		<circle fill="#D1D3D4" cx="44" cy="31.1" r="8.4"/>
		<path fill="#FFFFFF" d="M44,22.7c-2,0-3.8,0.7-5.2,1.8c-0.9,1.4-1.5,3-1.5,4.8c0,4.7,3.8,8.4,8.4,8.4c1.8,0,3.4-0.5,4.8-1.5
			c1.1-1.4,1.8-3.2,1.8-5.2C52.4,26.5,48.6,22.7,44,22.7z"/>
		<circle fill="#D1D3D4" cx="58.7" cy="36.5" r="5.4"/>
		<circle fill="#D1D3D4" cx="14.4" cy="35.1" r="6.9"/>
		<path fill="#FFFFFF" d="M19.6,33.7c0-1.9-0.8-3.6-2.1-4.8c-0.9-0.5-2-0.7-3-0.7c-3.8,0-6.9,3.1-6.9,6.9c0,1.1,0.3,2.1,0.7,3
			c1.2,1.3,2.9,2.1,4.8,2.1C16.6,40.2,19.6,37.3,19.6,33.7z"/>
		<circle fill="#D1D3D4" cx="22.6" cy="32" r="8.2"/>
		<path fill="#FFFFFF" d="M22.6,23.8c-4.5,0-8.2,3.7-8.2,8.2c0,1.6,0.5,3,1.2,4.3c1.4,1.3,3.3,2.1,5.4,2.1c4.4,0,8-3.6,8-8
			c0-2.1-0.8-3.9-2.1-5.4C25.7,24.3,24.2,23.8,22.6,23.8z"/>
		<circle fill="#D1D3D4" cx="53.9" cy="31.1" r="5.8"/>
		<path fill="#FFFFFF" d="M54,35.6c3,0,5.4-2.2,5.7-5.1c-0.3-2.9-2.8-5.2-5.8-5.2c-2.7,0-4.9,1.8-5.6,4.2c0,0.1,0,0.3,0,0.4
			C48.4,33.1,50.9,35.6,54,35.6z"/>
		<path fill="#FFFFFF" d="M58.7,31.1c-2.8,0-5.1,2.1-5.4,4.8c0.2,2.8,2.5,5,5.4,5c2.8,0,5.1-2.1,5.4-4.9
			C63.8,33.2,61.5,31.1,58.7,31.1z"/>
	</g>
</g>
</svg>
