<?xml version="1.0" encoding="utf-8"?>
<!-- Generator: Adobe Illustrator 18.1.1, SVG Export Plug-In . SVG Version: 6.00 Build 0)  -->
<!DOCTYPE svg PUBLIC "-//W3C//DTD SVG 1.1//EN" "http://www.w3.org/Graphics/SVG/1.1/DTD/svg11.dtd">
<svg version="1.1" id="sunnyShowersIcon" xmlns="http://www.w3.org/2000/svg" xmlns:xlink="http://www.w3.org/1999/xlink" x="0px"
	 y="0px" width="70px" height="70px" viewBox="0 0 70 70" enable-background="new 0 0 70 70" xml:space="preserve">
<g id="rain">
	<path fill="#33B5D9" d="M21.7,46c-0.1,0.4-0.3,2.7-0.7,3.4c-0.1,0.2-0.2,0.3-0.3,0.5c-0.3,0.2-0.7,0.2-0.9,0.1
		c-0.5-0.3-0.5-1.1-0.1-1.9C19.9,47.5,21,46.5,21.7,46z"/>
	<path fill="#33B5D9" d="M25.9,44.8c-0.1,0.6-0.4,3.5-1,4.4c-0.1,0.2-0.3,0.4-0.5,0.6c-0.4,0.2-0.9,0.3-1.2,0.1
		c-0.7-0.4-0.7-1.5-0.1-2.5C23.5,46.6,25,45.4,25.9,44.8z"/>
	<path fill="#33B5D9" d="M50.2,45c-0.1,0.5-0.4,3.3-0.9,4.2c-0.1,0.2-0.3,0.4-0.4,0.6c-0.4,0.2-0.8,0.3-1.2,0.1
		c-0.6-0.4-0.7-1.4-0.1-2.4C47.9,46.8,49.4,45.6,50.2,45z"/>
	<path fill="#00A2CF" d="M32.3,48.8c-0.6,1-1.6,1.5-2.2,1.1c-0.7-0.4-0.7-1.5-0.1-2.5s3.3-3,3.3-3S32.9,47.8,32.3,48.8z"/>
	<path fill="#33B5D9" d="M42.3,45.7c-0.1,0.5-0.4,2.9-0.8,3.7c-0.1,0.2-0.2,0.4-0.4,0.5c-0.4,0.2-0.7,0.2-1,0.1
		c-0.5-0.3-0.6-1.2-0.1-2.1C40.3,47.3,41.6,46.2,42.3,45.7z"/>
	<path fill="#33B5D9" d="M39.6,45.7c-0.1,0.5-0.4,2.9-0.8,3.7c-0.1,0.2-0.2,0.4-0.4,0.5c-0.4,0.2-0.7,0.2-1,0.1
		c-0.5-0.3-0.6-1.2-0.1-2.1C37.7,47.3,38.9,46.3,39.6,45.7z"/>
	<path fill="#33B5D9" d="M32.8,45.6c-0.1,0.5-0.4,3-0.8,3.8c-0.1,0.2-0.2,0.4-0.4,0.5c-0.4,0.2-0.7,0.2-1,0.1
		c-0.6-0.3-0.6-1.3-0.1-2.2C30.7,47.2,32,46.1,32.8,45.6z"/>
</g>
<g id="sun">
	<g id="outerRepeat">
		<circle id="outer" fill="#FFE499" cx="28.1" cy="26.9" r="21.5"/>
	</g>
	<g id="middleRepeat">
		<circle id="middle" fill="#FFD766" cx="28.1" cy="26.9" r="16.6"/>
	</g>
	<circle id="inner" fill="#FFBC00" cx="28.1" cy="26.9" r="12.5"/>
</g>
<g id="cloud">
	<path fill="#D1D3D4" d="M64.9,45.1c0,2.9-3.2,5.2-7.2,5.2H14.2c-4,0-7.2-2.3-7.2-5.2l0,0c0-2.9,3.2-5.2,7.2-5.2h43.5
		C61.7,40,64.9,42.3,64.9,45.1L64.9,45.1z"/>
	<circle fill="#FFFFFF" cx="33.6" cy="32.9" r="9.5"/>
	<circle fill="#D1D3D4" cx="44" cy="39" r="8.7"/>
	<path fill="#FFFFFF" d="M44,30.3c-2.1,0-3.9,0.7-5.4,1.9c-1,1.4-1.5,3.1-1.5,5c0,4.9,3.9,8.8,8.8,8.8c1.8,0,3.6-0.6,5-1.5
		c1.2-1.5,1.9-3.4,1.9-5.4C52.7,34.2,48.8,30.3,44,30.3z"/>
	<circle fill="#D1D3D4" cx="59.3" cy="44.7" r="5.7"/>
	<circle fill="#D1D3D4" cx="13.1" cy="43.1" r="7.2"/>
	<path fill="#FFFFFF" d="M18.5,41.7c0-2-0.8-3.7-2.2-5c-1-0.5-2-0.7-3.2-0.7c-4,0-7.2,3.2-7.2,7.2c0,1.1,0.3,2.2,0.7,3.2
		c1.2,1.3,3,2.2,5,2.2C15.4,48.5,18.5,45.4,18.5,41.7z"/>
	<circle fill="#D1D3D4" cx="21.7" cy="40" r="8.5"/>
	<path fill="#FFFFFF" d="M21.7,31.4c-4.7,0-8.5,3.8-8.5,8.5c0,1.6,0.5,3.2,1.3,4.5c1.5,1.3,3.4,2.2,5.6,2.2c4.6,0,8.3-3.7,8.3-8.3
		c0-2.2-0.8-4.1-2.2-5.6C24.9,31.9,23.3,31.4,21.7,31.4z"/>
	<circle fill="#D1D3D4" cx="54.3" cy="39" r="6"/>
	<path fill="#FFFFFF" d="M54.5,43.7c3.1,0,5.6-2.3,5.9-5.3c-0.3-3.1-2.9-5.4-6-5.4c-2.8,0-5.1,1.9-5.8,4.4c0,0.1,0,0.3,0,0.4
		C48.5,41.1,51.2,43.7,54.5,43.7z"/>
	<path fill="#FFFFFF" d="M59.3,39c-2.9,0-5.3,2.2-5.6,5c0.2,2.9,2.7,5.2,5.6,5.2c2.9,0,5.3-2.2,5.6-5.1C64.6,41.2,62.2,39,59.3,39z"
		/>
</g>
</svg>
