<?xml version="1.0" encoding="utf-8"?>
<!-- Generator: Adobe Illustrator 18.1.1, SVG Export Plug-In . SVG Version: 6.00 Build 0)  -->
<!DOCTYPE svg PUBLIC "-//W3C//DTD SVG 1.1//EN" "http://www.w3.org/Graphics/SVG/1.1/DTD/svg11.dtd">
<svg version="1.1" id="thermometerColdIcon" xmlns="http://www.w3.org/2000/svg" xmlns:xlink="http://www.w3.org/1999/xlink"
	 x="0px" y="0px" width="70px" height="70px" viewBox="0 0 70 70" enable-background="new 0 0 70 70" xml:space="preserve">

<g id="thermometer">

	<g id="snowflake">
		<path fill="#D1D3D4" d="M44.9,24.2l-0.6-1.1l-3.1-3.2l-0.3-0.2l0,0l-0.7-0.6v0.1L38.5,18l0.1-1.8L38,16l-0.1,1.5l-0.5-0.3l0.1-1.3
			l-0.7-0.2l-0.1,1.1l-1-0.6l-0.4,0.6l0.9,0.6l-1,0.5l0.4,0.6l1.2-0.6l0.5,0.3l-1.4,0.7l0.4,0.5l1.6-0.8l1.8,1.2l-1.1,0.3l0.7,1
			l-1-0.1l-1.1-1.5l-0.6,0.3l0.8,1.1l-0.8-0.1v0.7h0.8l-1,1l0.6,0.4l1.3-1.3l1,0.1l-0.8,0.9l1.1,0.5L37.8,24l-1.5-1l-0.5,0.5l1.3,0.9
			l-0.5,0.3l-1.1-0.8L35,24.3l0.9,0.6l-1,0.5l0.3,0.6l1-0.5l-0.1,1.1l0.7-0.1l0.1-1.3l0.5-0.3l-0.1,1.5l0.7-0.1l0.1-1.8l1.9-0.9
			l-0.3,1.2l1.2-0.1l-0.6,0.8l-1.8,0.2v0.7l1.4-0.1L39.5,27l0.6,0.4l0.4-0.7l0.4,1.4l0.6-0.3L41,26l0.6-0.8l0.3,1.2l1-0.7l-0.1,2.1
			L41,28.4l0.2,0.7l1.4-0.7V29l-1.2,0.6l0.2,0.7l1-0.5l-0.1,1.1h0.7l0.1-1.1l0.9,0.6l0.3-0.6L43.1,29v-0.6l1.3,0.9l0.3-0.6l-1.5-1
			l0.1-2.1l0.8,0.8l0.5-1.1l0.4,0.9l-0.7,1.7l0.6,0.4l0.6-1.3l0.4,0.7l0.6-0.3l-0.3-0.7l1.3,0.3l0.1-0.7l-1.8-0.4L45.3,25l0.6,0.1
			l-0.6-0.8L44.9,24.2L44.9,24.2z M40.6,20.2l1.5,1l-1.8-0.1l-0.5-0.7L40.6,20.2L40.6,20.2z M39.7,22.3l0.6-0.6l1.8,0.1l-1.6,0.8
			L39.7,22.3L39.7,22.3z M41.4,24h-0.8l0.2-0.8l1.6-0.8L41.4,24L41.4,24z M42.8,24.6l-0.6,0.5L42,24.3l1-1.5L42.8,24.6L42.8,24.6z
			 M44,25.2l-0.6-0.5l0.1-1.8l0.8,1.6L44,25.2L44,25.2z"/>
		<path fill="#FFFFFF" d="M51.5,17.3l-1,0.5l0.1-1.1l-0.7,0.1l-0.1,1.3l-0.5,0.3l0.1-1.5L48.7,17l-0.1,1.8l-1.9,0.9l0.3-1.1l-1.2,0.1
			l0.6-0.8l1.8-0.2V17l-1.4,0.1l0.4-0.7L46.7,16l-0.4,0.7l-0.4-1.3l-0.6,0.3l0.5,1.8l-0.6,0.8l-0.3-1.1L44,17.9l0.1-2.1l1.6-0.8
			l-0.2-0.7L44.1,15v-0.6l1.2-0.6l-0.2-0.6l-1,0.5l0.1-1.1h-0.7l-0.1,1.1l-0.9-0.6l-0.3,0.6l1.1,0.7V15l-1.2-1l-0.3,0.6l1.5,1
			l-0.1,2.1L42.4,17l-0.5,1l-0.4-0.9l0.8-1.7L41.7,15l-0.6,1.3l-0.4-0.7L40.2,16l0.3,0.7l-1.4-0.3v0.7l1.8,0.4l0.4,0.9L40.2,18l0.1,1
			l0.7,0.6l-0.1-0.7l0.8,0.2l0.8,1.6l-1.2-0.8l3.1,3.2l-0.2-0.5l1.5,1l0.1,0.8l-0.4-0.1l0.6,0.8l0.6,0.1L46.5,24l1.8,1.2L48,27.1
			l0.6,0.2l0.1-1.5l0.5,0.3l-0.1,1.3l0.7,0.2l0.1-1.1l1,0.6l0.4-0.6l-1-0.6l1-0.5l-0.4-0.5l-1.2,0.6l-0.5-0.3l1.4-0.7L50.2,24
			l-1.6,0.8l-1.8-1.2l1.1-0.3l-0.7-1l1,0.1l1.1,1.5l0.6-0.3L49,22.4l0.8,0.1v-0.7H49l1-1l-0.6-0.4l-1.3,1.3l-1-0.1l0.8-0.8l-1.1-0.5
			l1.9-0.9l1.5,1l0.5-0.5L49.5,19l0.5-0.3l1.1,0.7l0.5-0.5l-0.9-0.6l1-0.5L51.5,17.3L51.5,17.3z M43.1,20.4l-0.8-1.6l0.3-0.7l0.6,0.5
			L43.1,20.4L43.1,20.4z M43.7,20.4l0.1-1.8l0.6-0.5l0.2,0.8L43.7,20.4L43.7,20.4z M45.3,19.3l0.8-0.1L45.9,20l-1.6,0.8L45.3,19.3
			L45.3,19.3z M46,23l-1.5-1l1.8,0.1l0.5,0.6L46,23L46,23z M46.3,21.5l-1.8-0.1l1.6-0.8l0.7,0.3L46.3,21.5L46.3,21.5z"/>
	</g>
	<circle fill="#E6E7E8" cx="27.9" cy="52.8" r="9.7"/>
	<path fill="#E6E7E8" d="M31.1,10.9c0-1.8-1.5-3.2-3.2-3.2l0,0c-1.8,0-3.2,1.5-3.2,3.2v33.4c0,1.8,1.5,3.2,3.2,3.2l0,0
		c1.8,0,3.2-1.5,3.2-3.2V10.9z"/>
	<path fill="#52BBE7" d="M30.1,44.4l0.7,0.2c3.4,1.2,5.7,4.5,5.7,8.1c0,4.8-3.9,8.6-8.6,8.6c-4.8,0-8.6-3.9-8.6-8.6
		c0-3.6,2.3-6.9,5.7-8.1l0.7-0.2L30.1,44.4z"/>
	<rect id="mercury" x="25.7" y="13" fill="#52BBE7" width="4.4" height="31.7"/>
	<path opacity="0.3" fill="#FFFFFF" enable-background="new    " d="M32.1,44.7c1.4,1.6,2.3,3.7,2.3,6c0,5-4.1,9.1-9.1,9.1
		c-1.9,0-3.6-0.6-5-1.5c1.7,2.1,4.3,3.5,7.2,3.5c5.1,0,9.2-4.1,9.2-9.2C36.6,49.3,34.8,46.3,32.1,44.7z"/>
	<rect x="24.6" y="13" fill="#58595B" width="2.2" height="0.5"/>
	<rect x="24.6" y="15.4" fill="#58595B" width="1.1" height="0.5"/>
	<rect x="24.6" y="17.7" fill="#58595B" width="1.1" height="0.5"/>
	<rect x="24.6" y="20.1" fill="#58595B" width="1.1" height="0.5"/>
	<rect x="24.6" y="22.5" fill="#58595B" width="2.2" height="0.5"/>
	<rect x="24.6" y="24.8" fill="#58595B" width="1.1" height="0.5"/>
	<rect x="24.6" y="27.2" fill="#58595B" width="1.1" height="0.5"/>
	<rect x="24.6" y="29.6" fill="#58595B" width="1.1" height="0.5"/>
	<rect x="24.6" y="31.9" fill="#58595B" width="2.2" height="0.5"/>
	<rect x="24.6" y="34.3" fill="#58595B" width="1.1" height="0.5"/>
	<rect x="24.6" y="36.7" fill="#58595B" width="1.1" height="0.5"/>
	<rect x="24.6" y="39" fill="#58595B" width="1.1" height="0.5"/>
	<rect x="24.6" y="41.4" fill="#58595B" width="2.2" height="0.5"/>
	<circle fill="#FFFFFF" cx="24.5" cy="50" r="2.1"/>
	<path opacity="0.4" fill="#F1F2F2" enable-background="new    " d="M30.6,42c0,0.6-0.5,1.1-1.1,1.1l0,0c-0.6,0-1.1-0.5-1.1-1.1
		V12.1c0-0.6,0.5-1.1,1.1-1.1l0,0c0.6,0,1.1,0.5,1.1,1.1V42z"/>
	<g id="c">
		<path fill="#FFFFFF" d="M21.8,17.8c-0.2,0.1-0.5,0.2-0.9,0.2c-0.9,0-1.6-0.6-1.6-1.7c0-1,0.7-1.7,1.7-1.7c0.4,0,0.7,0.1,0.8,0.1
			L21.7,15c-0.2,0-0.4,0-0.7,0c-0.8,0-1.3,0.5-1.3,1.4c0,0.8,0.5,1.3,1.3,1.3c0.3,0,0.5-0.1,0.7-0.1L21.8,17.8z"/>
		<path fill="#FFFFFF" d="M18.2,14.7c-0.3,0-0.6,0.3-0.6,0.6s0.3,0.6,0.6,0.6c0.3,0,0.6-0.3,0.6-0.6C18.8,14.9,18.5,14.7,18.2,14.7z
			 M18.2,15.6c-0.2,0-0.3-0.2-0.3-0.3c0-0.2,0.2-0.3,0.3-0.3c0.2,0,0.3,0.2,0.3,0.3C18.6,15.5,18.4,15.6,18.2,15.6z"/>
	</g>
</g>
</svg>
