<?xml version="1.0" encoding="utf-8"?>
<!-- Generator: Adobe Illustrator 18.1.1, SVG Export Plug-In . SVG Version: 6.00 Build 0)  -->
<!DOCTYPE svg PUBLIC "-//W3C//DTD SVG 1.1//EN" "http://www.w3.org/Graphics/SVG/1.1/DTD/svg11.dtd">
<svg version="1.1" id="thermometerHotIcon" xmlns="http://www.w3.org/2000/svg" xmlns:xlink="http://www.w3.org/1999/xlink" x="0px"
	 y="0px" width="70px" height="70px" viewBox="0 0 70 70" enable-background="new 0 0 70 70" xml:space="preserve">
<g id="sun_2_">
	<g id="outerRepeat">
		<circle id="outer" fill="#FFE499" cx="44" cy="20.8" r="9.6"/>
	</g>
	<g id="middleRepeat">
		<circle id="middle" fill="#FFD766" cx="44" cy="20.8" r="7.4"/>
	</g>
	<circle id="inner" fill="#FFBC00" cx="44" cy="20.8" r="5.5"/>
</g>
<g id="thermometer">
	<circle fill="#E6E7E8" cx="27.9" cy="52.8" r="9.7"/>
	<path fill="#E6E7E8" d="M31.1,10.9c0-1.8-1.5-3.2-3.2-3.2l0,0c-1.8,0-3.2,1.5-3.2,3.2v33.4c0,1.8,1.5,3.2,3.2,3.2l0,0
		c1.8,0,3.2-1.5,3.2-3.2V10.9z"/>
	<path fill="#FF703D" d="M30.1,44.4l0.7,0.2c3.4,1.2,5.7,4.5,5.7,8.1c0,4.8-3.9,8.6-8.6,8.6c-4.8,0-8.6-3.9-8.6-8.6
		c0-3.6,2.3-6.9,5.7-8.1l0.7-0.2L30.1,44.4z"/>
	<rect id="mercury" x="25.7" y="13" fill="#FF703D" width="4.4" height="31.7"/>
	<path opacity="0.3" fill="#FFFFFF" enable-background="new    " d="M32.1,44.7c1.4,1.6,2.3,3.7,2.3,6c0,5-4.1,9.1-9.1,9.1
		c-1.9,0-3.6-0.6-5-1.5c1.7,2.1,4.3,3.5,7.2,3.5c5.1,0,9.2-4.1,9.2-9.2C36.6,49.3,34.8,46.3,32.1,44.7z"/>
	<rect x="24.6" y="13" fill="#58595B" width="2.2" height="0.5"/>
	<rect x="24.6" y="15.4" fill="#58595B" width="1.1" height="0.5"/>
	<rect x="24.6" y="17.7" fill="#58595B" width="1.1" height="0.5"/>
	<rect x="24.6" y="20.1" fill="#58595B" width="1.1" height="0.5"/>
	<rect x="24.6" y="22.5" fill="#58595B" width="2.2" height="0.5"/>
	<rect x="24.6" y="24.8" fill="#58595B" width="1.1" height="0.5"/>
	<rect x="24.6" y="27.2" fill="#58595B" width="1.1" height="0.5"/>
	<rect x="24.6" y="29.6" fill="#58595B" width="1.1" height="0.5"/>
	<rect x="24.6" y="31.9" fill="#58595B" width="2.2" height="0.5"/>
	<rect x="24.6" y="34.3" fill="#58595B" width="1.1" height="0.5"/>
	<rect x="24.6" y="36.7" fill="#58595B" width="1.1" height="0.5"/>
	<rect x="24.6" y="39" fill="#58595B" width="1.1" height="0.5"/>
	<rect x="24.6" y="41.4" fill="#58595B" width="2.2" height="0.5"/>
	<circle fill="#FFFFFF" cx="24.5" cy="50" r="2.1"/>
	<path opacity="0.4" fill="#F1F2F2" enable-background="new    " d="M30.6,42c0,0.6-0.5,1.1-1.1,1.1l0,0c-0.6,0-1.1-0.5-1.1-1.1
		V12.1c0-0.6,0.5-1.1,1.1-1.1l0,0c0.6,0,1.1,0.5,1.1,1.1V42z"/>
	<g id="c">
		<path fill="#FFFFFF" d="M21.8,17.8c-0.2,0.1-0.5,0.2-0.9,0.2c-0.9,0-1.6-0.6-1.6-1.7c0-1,0.7-1.7,1.7-1.7c0.4,0,0.7,0.1,0.8,0.1
			L21.7,15c-0.2,0-0.4,0-0.7,0c-0.8,0-1.3,0.5-1.3,1.4c0,0.8,0.5,1.3,1.3,1.3c0.3,0,0.5-0.1,0.7-0.1L21.8,17.8z"/>
		<path fill="#FFFFFF" d="M18.2,14.7c-0.3,0-0.6,0.3-0.6,0.6s0.3,0.6,0.6,0.6c0.3,0,0.6-0.3,0.6-0.6C18.8,14.9,18.5,14.7,18.2,14.7z
			 M18.2,15.6c-0.2,0-0.3-0.2-0.3-0.3c0-0.2,0.2-0.3,0.3-0.3c0.2,0,0.3,0.2,0.3,0.3C18.6,15.5,18.4,15.6,18.2,15.6z"/>
	</g>
</g>
</svg>
