<?xml version="1.0" encoding="utf-8"?>
<!-- Generator: Adobe Illustrator 18.1.1, SVG Export Plug-In . SVG Version: 6.00 Build 0)  -->
<!DOCTYPE svg PUBLIC "-//W3C//DTD SVG 1.1//EN" "http://www.w3.org/Graphics/SVG/1.1/DTD/svg11.dtd">
<svg version="1.1" id="thundershowersIcon" xmlns="http://www.w3.org/2000/svg" xmlns:xlink="http://www.w3.org/1999/xlink" x="0px"
	 y="0px" width="70px" height="70px" viewBox="0 0 70 70" enable-background="new 0 0 70 70" xml:space="preserve">
<path id="lightning" fill="#FF9B00" d="M34.9,39.2l-5.1,6.7L29.4,45h4.1h1.2L34,45.9l-4.7,5.8c-0.1,0.1-0.3,0.1-0.4,0
	s-0.1-0.3-0.1-0.4l4.2-6.2l0.5,0.9h-4.1h-1.2l0.7-0.9l5.1-6.7c0.2-0.3,0.6-0.3,0.8-0.1C35,38.6,35.1,39,34.9,39.2z"/>
<g id="rain">
	<path fill="#00A2CF" d="M37.5,39.3c-0.3,0.6-1,0.9-1.4,0.7s-0.4-0.9-0.1-1.5c0.4-0.6,2-1.8,2-1.8S37.9,38.7,37.5,39.3z"/>
	<path fill="#00A2CF" d="M27.3,39.5c-0.3,0.5-0.7,0.7-1,0.5s-0.3-0.7-0.1-1.2c0.3-0.5,1.6-1.4,1.6-1.4S27.6,39,27.3,39.5z"/>
	<path fill="#00A2CF" d="M16.9,34.2c-0.3,0.6-0.9,0.9-1.3,0.7c-0.4-0.2-0.4-0.9-0.1-1.5c0.3-0.6,1.9-1.8,1.9-1.8
		S17.3,33.6,16.9,34.2z"/>
	<path fill="#00A2CF" d="M21.3,39.2c-0.3,0.5-0.8,0.7-1.1,0.5c-0.3-0.2-0.3-0.7-0.1-1.2c0.3-0.5,1.6-1.4,1.6-1.4
		S21.6,38.7,21.3,39.2z"/>
	<path fill="#00A2CF" d="M24.8,39.3c-0.3,0.6-1,0.9-1.4,0.7s-0.4-0.9-0.1-1.5c0.4-0.6,2-1.8,2-1.8S25.1,38.7,24.8,39.3z"/>
	<path fill="#00A2CF" d="M28.7,39.6c-0.2,0.4-0.6,0.6-0.9,0.4c-0.3-0.1-0.3-0.6-0.1-1c0.2-0.4,1.3-1.2,1.3-1.2S28.9,39.2,28.7,39.6z
		"/>
	<path fill="#00A2CF" d="M42.7,39.6c-0.2,0.4-0.6,0.6-0.9,0.4c-0.3-0.1-0.3-0.6-0.1-1s1.3-1.2,1.3-1.2S42.9,39.2,42.7,39.6z"/>
	<path fill="#00A2CF" d="M37,39.6c-0.2,0.4-0.6,0.6-0.9,0.4c-0.3-0.1-0.3-0.6-0.1-1s1.3-1.2,1.3-1.2S37.2,39.2,37,39.6z"/>
	<path fill="#00A2CF" d="M53.7,33.3c-0.2,0.3-0.5,0.5-0.7,0.4s-0.2-0.5,0-0.8s1.1-1,1.1-1S53.9,33,53.7,33.3z"/>
	<path fill="#00A2CF" d="M50.3,37.5c-0.3,0.5-0.8,0.7-1.1,0.6c-0.3-0.2-0.4-0.7-0.1-1.2c0.3-0.5,1.7-1.5,1.7-1.5S50.6,37,50.3,37.5z
		"/>
	<path fill="#00A2CF" d="M55.8,33.3c-0.2,0.4-0.6,0.6-0.8,0.4c-0.2-0.1-0.3-0.6-0.1-0.9c0.2-0.4,1.3-1.1,1.3-1.1S56,32.9,55.8,33.3z
		"/>
	<path fill="#00A2CF" d="M16.8,34.5c-0.2,0.4-0.6,0.6-0.8,0.4c-0.2-0.1-0.3-0.6-0.1-0.9c0.2-0.4,1.3-1.1,1.3-1.1S17,34.1,16.8,34.5z
		"/>
</g>
<g id="cloud2">
	<path fill="#BCBEC0" d="M64.2,30.8c0,1.7-2,3.1-4.4,3.1H33.4c-2.4,0-4.4-1.4-4.4-3.1l0,0c0-1.7,2-3.1,4.4-3.1h26.4
		C62.2,27.7,64.2,29.1,64.2,30.8L64.2,30.8z"/>
	<circle fill="#E6E7E8" cx="45.1" cy="23.4" r="5.7"/>
	<circle fill="#BCBEC0" cx="51.4" cy="27.1" r="5.3"/>
	<path fill="#E6E7E8" d="M51.4,21.8c-1.2,0-2.4,0.4-3.3,1.2c-0.6,0.9-0.9,1.9-0.9,3c0,3,2.4,5.3,5.3,5.3c1.1,0,2.2-0.3,3-0.9
		c0.7-0.9,1.2-2.1,1.2-3.3C56.7,24.2,54.4,21.8,51.4,21.8z"/>
	<circle fill="#BCBEC0" cx="60.7" cy="30.5" r="3.4"/>
	<circle fill="#BCBEC0" cx="32.7" cy="29.6" r="4.4"/>
	<path fill="#E6E7E8" d="M36,28.7c0-1.2-0.5-2.3-1.3-3c-0.6-0.3-1.2-0.5-1.9-0.5c-2.4,0-4.4,2-4.4,4.4c0,0.7,0.2,1.3,0.5,1.9
		c0.8,0.8,1.8,1.3,3,1.3C34.1,32.9,36,31,36,28.7z"/>
	<circle fill="#BCBEC0" cx="37.9" cy="27.7" r="5.2"/>
	<path fill="#E6E7E8" d="M37.9,22.5c-2.9,0-5.2,2.3-5.2,5.2c0,1,0.3,1.9,0.8,2.7c0.9,0.8,2.1,1.3,3.4,1.3c2.8,0,5-2.3,5-5
		c0-1.3-0.5-2.5-1.3-3.4C39.8,22.8,38.9,22.5,37.9,22.5z"/>
	<circle fill="#BCBEC0" cx="57.7" cy="27.1" r="3.7"/>
	<path fill="#E6E7E8" d="M57.8,30c1.9,0,3.4-1.4,3.6-3.2c-0.2-1.9-1.7-3.3-3.6-3.3c-1.7,0-3.1,1.1-3.5,2.7c0,0.1,0,0.2,0,0.3
		C54.2,28.4,55.8,30,57.8,30z"/>
	<path fill="#E6E7E8" d="M60.7,27.1c-1.8,0-3.2,1.3-3.4,3c0.1,1.8,1.6,3.2,3.4,3.2c1.8,0,3.2-1.4,3.4-3.1
		C64,28.5,62.5,27.1,60.7,27.1z"/>
</g>
<g id="cloud1">
	<path fill="#BCBEC0" d="M42.5,32.3c0,1.7-2,3.1-4.4,3.1H11.7c-2.4,0-4.4-1.4-4.4-3.1l0,0c0-1.7,2-3.1,4.4-3.1h26.4
		C40.5,29.2,42.5,30.6,42.5,32.3L42.5,32.3z"/>
	<circle fill="#E6E7E8" cx="23.4" cy="24.9" r="5.7"/>
	<circle fill="#BCBEC0" cx="29.8" cy="28.6" r="5.3"/>
	<path fill="#E6E7E8" d="M29.8,23.3c-1.2,0-2.4,0.4-3.3,1.2c-0.6,0.9-0.9,1.9-0.9,3c0,3,2.4,5.3,5.3,5.3c1.1,0,2.2-0.3,3-0.9
		c0.7-0.9,1.2-2.1,1.2-3.3C35,25.7,32.7,23.3,29.8,23.3z"/>
	<circle fill="#BCBEC0" cx="39.1" cy="32.1" r="3.4"/>
	<circle fill="#BCBEC0" cx="11" cy="31.1" r="4.4"/>
	<path fill="#E6E7E8" d="M14.3,30.2c0-1.2-0.5-2.3-1.3-3c-0.6-0.3-1.2-0.5-1.9-0.5c-2.4,0-4.4,2-4.4,4.4c0,0.7,0.2,1.3,0.5,1.9
		c0.8,0.8,1.8,1.3,3,1.3C12.4,34.4,14.3,32.5,14.3,30.2z"/>
	<circle fill="#BCBEC0" cx="16.2" cy="29.2" r="5.2"/>
	<path fill="#E6E7E8" d="M16.2,24c-2.9,0-5.2,2.3-5.2,5.2c0,1,0.3,1.9,0.8,2.7c0.9,0.8,2.1,1.3,3.4,1.3c2.8,0,5-2.3,5-5
		c0-1.3-0.5-2.5-1.3-3.4C18.1,24.3,17.2,24,16.2,24z"/>
	<circle fill="#BCBEC0" cx="36.1" cy="28.6" r="3.7"/>
	<path fill="#E6E7E8" d="M36.1,31.5c1.9,0,3.4-1.4,3.6-3.2C39.5,26.4,38,25,36.1,25c-1.7,0-3.1,1.1-3.5,2.7c0,0.1,0,0.2,0,0.3
		C32.5,29.9,34.1,31.5,36.1,31.5z"/>
	<path fill="#E6E7E8" d="M39.1,28.6c-1.8,0-3.2,1.3-3.4,3c0.1,1.8,1.6,3.2,3.4,3.2c1.8,0,3.2-1.4,3.4-3.1
		C42.3,30,40.8,28.6,39.1,28.6z"/>
</g>
<g id="cloud0">
	<circle fill="#BCBEC0" cx="44.4" cy="33.3" r="7.4"/>
	<circle fill="#D1D3D4" cx="29.1" cy="31.4" r="5.9"/>
	<path fill="#BCBEC0" d="M20.9,37.3c0,1.9,1.5,3.4,3.5,3.4h20.7c1.9,0,3.5-1.5,3.5-3.4l0,0c0-1.9-14.9-7.5-16.8-7.5
		c0,0-0.6,5.5-4.5,0.9C25.8,29.1,20.9,35.4,20.9,37.3L20.9,37.3z"/>
	<circle fill="#BCBEC0" cx="23.4" cy="35" r="5.7"/>
	<path fill="#D1D3D4" d="M17.7,34.5c0.2-2.8,2.4-5,5.2-5.2c2.4,0.2,4.2,2.3,4.2,4.7c0,2.6-2.1,4.7-4.7,4.7
		C20,38.8,18,36.9,17.7,34.5z"/>
	<path fill="#D1D3D4" d="M45.2,26c3.5,0.4,6.2,3.1,6.6,6.6c-0.3,2.9-2.8,5.2-5.9,5.2c-3.3,0-5.9-2.7-5.9-5.9
		C40,28.8,42.2,26.3,45.2,26z"/>
	<circle fill="#BCBEC0" cx="36.8" cy="26.6" r="7.9"/>
	<path fill="#D1D3D4" d="M30,24.6c0-0.9,0.1-1.7,0.4-2.4c1.4-2.1,3.8-3.4,6.5-3.4c4.3,0,7.9,3.5,7.9,7.9c0,0.7-0.1,1.4-0.3,2.1
		c-1.4,2.2-3.8,3.7-6.6,3.7C33.5,32.4,30,28.9,30,24.6z"/>
</g>
</svg>
