<?xml version="1.0" encoding="utf-8"?>
<!-- Generator: Adobe Illustrator 18.1.1, SVG Export Plug-In . SVG Version: 6.00 Build 0)  -->
<!DOCTYPE svg PUBLIC "-//W3C//DTD SVG 1.1//EN" "http://www.w3.org/Graphics/SVG/1.1/DTD/svg11.dtd">
<svg version="1.1" id="windySunnyIcon" xmlns="http://www.w3.org/2000/svg" xmlns:xlink="http://www.w3.org/1999/xlink" x="0px"
	 y="0px" width="70px" height="70px" viewBox="0 0 70 70" enable-background="new 0 0 70 70" xml:space="preserve">
 <g id="moon">
	 	<circle fill="#F1E5A1" cx="23.3" cy="35.1" r="17.5"/>
	 	<path fill="#F5EEBC" d="M5.8,35.1c0,5.7,2.7,10.8,6.9,14c1.3,0.3,2.6,0.5,4,0.5c9.7,0,17.5-7.9,17.5-17.5c0-5.7-2.7-10.8-6.9-14
	 		c-1.3-0.3-2.6-0.5-4-0.5C13.7,17.5,5.8,25.4,5.8,35.1z"/>
	 	<circle fill="#DBD093" cx="17.9" cy="26.6" r="2.4"/>
	 	<circle fill="#DBD093" cx="12.4" cy="35.1" r="3.4"/>
	 	<circle fill="#DBD093" cx="21" cy="35.1" r="1.7"/>
 </g>
<g id="wind">

		<line fill="none" stroke="#FFFFFF" stroke-width="1.25" stroke-linecap="round" stroke-miterlimit="10" x1="44.2" y1="32.2" x2="50.8" y2="32.2"/>

		<line fill="none" stroke="#FFFFFF" stroke-width="1.25" stroke-linecap="round" stroke-miterlimit="10" x1="41" y1="35.7" x2="56" y2="35.7"/>

		<line fill="none" stroke="#FFFFFF" stroke-width="1.25" stroke-linecap="round" stroke-miterlimit="10" x1="37" y1="39.2" x2="52.3" y2="39.2"/>

		<line fill="none" stroke="#FFFFFF" stroke-width="1.25" stroke-linecap="round" stroke-miterlimit="10" x1="22.6" y1="42.7" x2="52.3" y2="42.7"/>

		<line fill="none" stroke="#FFFFFF" stroke-width="1.25" stroke-linecap="round" stroke-miterlimit="10" x1="19.9" y1="46.1" x2="56" y2="46.1"/>

		<line fill="none" stroke="#FFFFFF" stroke-width="1.25" stroke-linecap="round" stroke-miterlimit="10" x1="19.2" y1="49.6" x2="54.7" y2="49.6"/>

		<line fill="none" stroke="#FFFFFF" stroke-width="1.25" stroke-linecap="round" stroke-miterlimit="10" x1="22.6" y1="53.1" x2="52.3" y2="53.1"/>

		<line fill="none" stroke="#FFFFFF" stroke-width="1.25" stroke-linecap="round" stroke-miterlimit="10" x1="25.5" y1="56.6" x2="50.7" y2="56.6"/>

		<line fill="none" stroke="#FFFFFF" stroke-width="1.25" stroke-linecap="round" stroke-miterlimit="10" x1="27.8" y1="60.1" x2="50" y2="60.1"/>
</g>
</svg>
