<?xml version="1.0" encoding="utf-8"?>
<!-- Generator: Adobe Illustrator 18.1.1, SVG Export Plug-In . SVG Version: 6.00 Build 0)  -->
<!DOCTYPE svg PUBLIC "-//W3C//DTD SVG 1.1//EN" "http://www.w3.org/Graphics/SVG/1.1/DTD/svg11.dtd">
<svg version="1.1" id="windyIcon" xmlns="http://www.w3.org/2000/svg" xmlns:xlink="http://www.w3.org/1999/xlink" x="0px" y="0px"
	 width="70px" height="70px" viewBox="0 0 70 70" enable-background="new 0 0 70 70" xml:space="preserve">
<g id="cloud1">
	<circle fill="#D1D3D4" cx="54.5" cy="32.2" r="8.5"/>
	<circle fill="#F1F2F2" cx="37" cy="30" r="6.8"/>
	<path fill="#D1D3D4" d="M27.6,36.7c0,2.2,1.8,3.9,3.9,3.9h23.7c2.2,0,3.9-1.8,3.9-3.9l0,0c0-2.2-17.1-8.6-19.3-8.6
		c0,0-0.7,6.3-5.2,1C33.2,27.3,27.6,34.6,27.6,36.7L27.6,36.7z"/>
	<circle fill="#D1D3D4" cx="30.5" cy="34.2" r="6.5"/>
	<path fill="#F1F2F2" d="M24,33.6c0.3-3.2,2.8-5.7,5.9-5.9c2.7,0.3,4.9,2.6,4.9,5.4c0,3-2.4,5.4-5.4,5.4
		C26.6,38.4,24.3,36.3,24,33.6z"/>
	<path fill="#F1F2F2" d="M55.4,23.8c4,0.4,7.1,3.6,7.5,7.5c-0.4,3.4-3.2,6-6.7,6c-3.7,0-6.8-3-6.8-6.8C49.4,27.1,52,24.2,55.4,23.8z
		"/>
	<circle fill="#D1D3D4" cx="45.8" cy="24.6" r="9"/>
	<path fill="#F1F2F2" d="M38,22.2c0-1,0.2-1.9,0.4-2.8c1.6-2.3,4.3-3.9,7.4-3.9c5,0,9,4,9,9c0,0.8-0.1,1.6-0.3,2.4
		c-1.6,2.5-4.4,4.2-7.6,4.2C42,31.2,38,27.2,38,22.2z"/>
</g>
<g id="cloud0">
	<circle fill="#D1D3D4" cx="13.1" cy="21.5" r="5.2"/>
	<circle fill="#F1F2F2" cx="23.9" cy="20.1" r="4.2"/>
	<path fill="#D1D3D4" d="M29.7,24.3c0,1.3-1.1,2.4-2.4,2.4H12.7c-1.3,0-2.4-1.1-2.4-2.4l0,0c0-1.3,10.5-5.3,11.8-5.3
		c0,0,0.4,3.9,3.2,0.6C26.2,18.5,29.7,23,29.7,24.3L29.7,24.3z"/>
	<circle fill="#D1D3D4" cx="27.9" cy="22.7" r="4"/>
	<path fill="#F1F2F2" d="M31.9,22.4c-0.2-1.9-1.7-3.5-3.7-3.7c-1.7,0.2-3,1.6-3,3.3c0,1.8,1.5,3.3,3.3,3.3
		C30.3,25.4,31.7,24,31.9,22.4z"/>
	<path fill="#F1F2F2" d="M12.6,16.4C10.1,16.6,8.2,18.6,8,21c0.2,2.1,2,3.7,4.1,3.7c2.3,0,4.2-1.9,4.2-4.2
		C16.3,18.4,14.6,16.6,12.6,16.4z"/>
	<circle fill="#D1D3D4" cx="18.5" cy="16.8" r="5.5"/>
	<path fill="#F1F2F2" d="M23.3,15.4c0-0.6-0.1-1.2-0.3-1.7c-1-1.4-2.7-2.4-4.5-2.4c-3.1,0-5.5,2.5-5.5,5.5c0,0.5,0.1,1,0.2,1.5
		c1,1.6,2.7,2.6,4.7,2.6C20.8,20.9,23.3,18.4,23.3,15.4z"/>
</g>
<g id="dashedLines">
	<path fill="none" stroke="#FFFFFF" stroke-linecap="round" stroke-miterlimit="10" d="M57.4,44.7c0,0-35.6,0-36.5,0"/>
	<path fill="none" stroke="#FFFFFF" stroke-linecap="round" stroke-miterlimit="10" d="M57.4,47.4c0,0-42.1,0-42.1,0
		c-1.9,0-3.4-1.5-3.4-3.4s1.5-3.4,3.4-3.4h1.9"/>
	<path fill="none" stroke="#FFFFFF" stroke-linecap="round" stroke-miterlimit="10" d="M57.4,52.7c0,0-28.1,0-28.1,0
		c-1.6,0-2.8,1.3-2.8,2.8s1.3,2.8,2.8,2.8h1.5"/>
	<path fill="none" stroke="#FFFFFF" stroke-linecap="round" stroke-miterlimit="10" d="M57.4,49.8c0,0-37.1,0-37.1,0
		c-1.6,0-2.8,1.3-2.8,2.8s1.3,2.8,2.8,2.8h1.5"/>
</g>
</svg>
